<?xml version="1.0" encoding="utf-8"?>
<!-- Generator: Adobe Illustrator 12.0.0, SVG Export Plug-In . SVG Version: 6.00 Build 51448)  -->
<!DOCTYPE svg PUBLIC "-//W3C//DTD SVG 1.1//EN" "http://www.w3.org/Graphics/SVG/1.1/DTD/svg11.dtd" [
	<!ENTITY ns_svg "http://www.w3.org/2000/svg">
	<!ENTITY ns_xlink "http://www.w3.org/1999/xlink">
]>
<svg  version="1.1" id="Layer_5" xmlns="&ns_svg;" xmlns:xlink="&ns_xlink;" width="96.579" height="154.531"
	 viewBox="0 0 96.579 154.531" overflow="visible" enable-background="new 0 0 96.579 154.531" xml:space="preserve">
<g>
	<path fill="#9D7728" d="M86.487,0L9.612,0.263C4.302,0.279-0.015,4.628,0,9.938l0.415,134.977c0.01,5.31,4.363,9.63,9.669,9.615
		l76.877-0.265c5.307-0.015,9.637-4.376,9.617-9.673L96.169,9.608C96.152,4.304,91.793-0.017,86.487,0"/>
	<path fill="#FFFFFF" d="M48.506,147.438c-4.153,0.005-7.514-3.328-7.525-7.486c-0.016-4.139,3.331-7.507,7.478-7.521
		c4.134-0.004,7.514,3.335,7.528,7.479C55.997,144.062,52.641,147.424,48.506,147.438"/>
	<polygon fill="#FFFFFF" points="86.879,125.338 9.99,125.613 9.67,19.551 86.553,19.284 	"/>
</g>
<g>
	<rect x="16.056" y="29.917" fill="#9D7728" width="64.468" height="10.712"/>
	<g>
		<rect x="16.031" y="62.365" fill="#9D7728" width="11.536" height="10.712"/>
		<rect x="32.68" y="62.365" fill="#9D7728" width="47.868" height="10.712"/>
	</g>
	<g>
		<rect x="16.031" y="78.589" fill="#9D7728" width="11.536" height="10.712"/>
		<rect x="32.68" y="78.589" fill="#9D7728" width="47.868" height="10.712"/>
	</g>
	<g>
		<rect x="16.031" y="94.813" fill="#9D7728" width="11.536" height="10.713"/>
		<rect x="32.68" y="94.813" fill="#9D7728" width="47.868" height="10.713"/>
	</g>
	<g>
		<rect x="16.031" y="46.142" fill="#9D7728" width="11.536" height="10.712"/>
		<rect x="32.68" y="46.142" fill="#9D7728" width="47.868" height="10.712"/>
	</g>
</g>
</svg>
