<?xml version="1.0" encoding="utf-8"?>
<!-- Generator: Adobe Illustrator 12.0.0, SVG Export Plug-In . SVG Version: 6.00 Build 51448)  -->
<!DOCTYPE svg PUBLIC "-//W3C//DTD SVG 1.1//EN" "http://www.w3.org/Graphics/SVG/1.1/DTD/svg11.dtd" [
	<!ENTITY ns_svg "http://www.w3.org/2000/svg">
	<!ENTITY ns_xlink "http://www.w3.org/1999/xlink">
]>
<svg  version="1.1" id="Layer_4" xmlns="&ns_svg;" xmlns:xlink="&ns_xlink;" width="191.602" height="156.955"
	 viewBox="0 0 191.602 156.955" overflow="visible" enable-background="new 0 0 191.602 156.955" xml:space="preserve">
<path fill="#9D7728" d="M117.898,111.734l-69.924,30.278L14.939,65.731l69.929-30.276l12.654,29.228l6.18-20.594l-7.501-17.32
	c-2.27-5.246-8.42-7.677-13.662-5.408L6.26,54.396c-5.246,2.269-7.679,8.417-5.41,13.666l35.784,82.634
	c2.272,5.246,8.422,7.678,13.668,5.408l76.279-33.033c5.244-2.272,7.682-8.416,5.408-13.662l-6.456-14.912l-13.362,4.009
	L117.898,111.734z"/>
<rect x="40.798" y="82.091" transform="matrix(0.9177 -0.3974 0.3974 0.9177 -28.6407 32.8889)" fill="#9D7728" width="48.49" height="6.929"/>
<rect x="56.074" y="48.599" transform="matrix(-0.3974 -0.9177 0.9177 -0.3974 16.3473 156.4236)" fill="#9D7728" width="6.926" height="48.489"/>
<polygon fill="#9D7728" points="105.708,37.408 101.549,41.565 80.769,110.835 150.041,90.053 154.198,85.897 84.924,106.68 "/>
<path fill="#9D7728" d="M191.602,27.711L150.041,69.27l-8.437,13.857L112.08,93.854c-3.419-7.224-7.11-10.907-14.327-14.329
	L108.475,50l13.856-8.435L163.889,0h-20.774l-37.407,37.408L84.924,106.68l69.273-20.782l37.404-37.406V27.711z"/>
<polygon fill="#9D7728" points="129.258,55.418 122.332,69.27 136.184,62.344 184.676,13.854 177.746,6.928 "/>
</svg>
