<?xml version="1.0" encoding="utf-8"?>
<!-- Generator: Adobe Illustrator 12.0.0, SVG Export Plug-In . SVG Version: 6.00 Build 51448)  -->
<!DOCTYPE svg PUBLIC "-//W3C//DTD SVG 1.1//EN" "http://www.w3.org/Graphics/SVG/1.1/DTD/svg11.dtd" [
	<!ENTITY ns_svg "http://www.w3.org/2000/svg">
	<!ENTITY ns_xlink "http://www.w3.org/1999/xlink">
]>
<svg  version="1.1" id="Layer_1" xmlns="&ns_svg;" xmlns:xlink="&ns_xlink;" width="180.905" height="180.064"
	 viewBox="0 0 180.905 180.064" overflow="visible" enable-background="new 0 0 180.905 180.064" xml:space="preserve">
<path fill="#9D7728" d="M87.699,153.755H8.77V57.286h36.814c0.872-6.433,3.188-12.407,6.678-17.54H8.77
	c-4.823,0-8.77,3.946-8.77,8.771v122.777c0,4.822,3.946,8.771,8.77,8.771h78.929c4.821,0,8.77-3.948,8.77-8.771v-68.632
	c-2.82,0.718-5.751,1.146-8.77,1.246V153.755z"/>
<circle fill="#FFFFFF" cx="48.234" cy="166.91" r="6.826"/>
<g>
	<g>
		<path fill="#9D7728" d="M176.55,119.401l-33.237-28.263c-3.438-3.091-7.112-4.515-10.08-4.378
			c7.85-9.186,12.59-21.111,12.59-34.141C145.823,23.56,122.261,0,93.204,0C64.145,0,40.584,23.56,40.584,52.62
			c0,29.058,23.56,52.616,52.619,52.616c13.029,0,24.956-4.736,34.146-12.581c-0.137,2.964,1.28,6.639,4.376,10.081l28.271,33.238
			c4.838,5.369,12.743,5.832,17.569,1.01C182.388,132.154,181.933,124.249,176.55,119.401z M93.204,87.696
			c-19.373,0-35.08-15.705-35.08-35.077c0-19.373,15.707-35.08,35.08-35.08c19.372,0,35.078,15.708,35.078,35.08
			C128.282,71.992,112.576,87.696,93.204,87.696z"/>
	</g>
</g>
<path fill="#9D7728" d="M95.8,27.208H53.375c-4.04,5.89-6.716,12.772-7.647,20.201H95.8v51.521
	c3.501-0.341,6.875-1.096,10.103-2.178V37.31C105.903,31.754,101.354,27.208,95.8,27.208z"/>
</svg>
