<?xml version="1.0" encoding="utf-8"?>
<!-- Generator: Adobe Illustrator 12.0.0, SVG Export Plug-In . SVG Version: 6.00 Build 51448)  -->
<!DOCTYPE svg PUBLIC "-//W3C//DTD SVG 1.1//EN" "http://www.w3.org/Graphics/SVG/1.1/DTD/svg11.dtd" [
	<!ENTITY ns_svg "http://www.w3.org/2000/svg">
	<!ENTITY ns_xlink "http://www.w3.org/1999/xlink">
]>
<svg  version="1.1" id="Layer_3" xmlns="&ns_svg;" xmlns:xlink="&ns_xlink;" width="149.137" height="185.183"
	 viewBox="0 0 149.137 185.183" overflow="visible" enable-background="new 0 0 149.137 185.183" xml:space="preserve">
<g>
	<path fill="#9D7728" d="M148.432,59.238L121.113,3.825c-1.672-3.391-5.805-4.791-9.196-3.12L25.714,43.208
		c-3.393,1.667-4.793,5.804-3.123,9.193l27.319,55.413c1.671,3.39,5.816,4.795,9.198,3.125l86.208-42.502
		C148.703,66.766,150.104,62.626,148.432,59.238"/>
	<path fill="#FFFFFF" d="M40.698,77.919c-1.303-2.655-0.223-5.848,2.433-7.156c2.642-1.305,5.844-0.219,7.15,2.43
		c1.298,2.642,0.218,5.85-2.428,7.156C45.201,81.654,42,80.56,40.698,77.919"/>
	<polygon fill="#FFFFFF" points="68.387,98.709 41.057,43.292 108.795,9.898 136.118,65.315 	"/>
</g>
<path fill="#9D7728" d="M122.17,81.512c-4.249-1.213-8.673,1.246-9.884,5.493l-0.625,2.196H37.056l-1.125-8.99
	c-0.5-4.003-3.897-7.005-7.935-7.005H7.998C3.579,73.205,0,76.783,0,81.203c0,4.419,3.579,7.998,7.998,7.998h12.935l7.125,56.983
	c0.5,4.003,3.902,7.005,7.935,7.005h67.984c3.569,0,6.711-2.367,7.692-5.804l15.996-55.987
	C128.881,87.151,126.423,82.722,122.17,81.512"/>
<rect x="63.988" y="113.197" fill="#FFFFFF" width="15.996" height="7.999"/>
<rect x="63.988" y="129.193" fill="#FFFFFF" width="15.996" height="7.998"/>
<rect x="63.988" y="97.199" fill="#FFFFFF" width="15.996" height="7.998"/>
<polygon fill="#FFFFFF" points="38.054,97.199 55.99,97.199 55.99,105.197 39.058,105.197 "/>
<polygon fill="#FFFFFF" points="40.053,113.197 55.99,113.197 55.99,121.196 41.057,121.196 "/>
<polygon fill="#FFFFFF" points="42.056,129.193 55.99,129.193 55.99,137.191 43.055,137.191 "/>
<polygon fill="#FFFFFF" points="97.946,137.191 87.982,137.191 87.982,129.193 100.233,129.193 "/>
<polygon fill="#FFFFFF" points="102.516,121.196 87.982,121.196 87.982,113.197 104.807,113.197 "/>
<polygon fill="#FFFFFF" points="107.088,105.197 87.982,105.197 87.982,97.199 109.379,97.199 "/>
<path fill="#9D7728" d="M31.997,173.186c0,6.626,5.369,11.997,11.995,11.997c6.625,0,11.999-5.371,11.999-11.997
	c0-6.629-5.374-11.996-11.999-11.996C37.366,161.19,31.997,166.557,31.997,173.186"/>
<path fill="#9D7728" d="M79.984,173.186c0,6.626,5.369,11.997,11.999,11.997c6.629,0,11.994-5.371,11.994-11.997
	c0-6.629-5.365-11.996-11.994-11.996C85.354,161.19,79.984,166.557,79.984,173.186"/>
</svg>
