<?xml version="1.0" encoding="utf-8"?>
<!-- Generator: Adobe Illustrator 12.0.0, SVG Export Plug-In . SVG Version: 6.00 Build 51448)  -->
<!DOCTYPE svg PUBLIC "-//W3C//DTD SVG 1.1//EN" "http://www.w3.org/Graphics/SVG/1.1/DTD/svg11.dtd" [
	<!ENTITY ns_svg "http://www.w3.org/2000/svg">
	<!ENTITY ns_xlink "http://www.w3.org/1999/xlink">
]>
<svg  version="1.1" id="Layer_2" xmlns="&ns_svg;" xmlns:xlink="&ns_xlink;" width="200.048" height="200.05"
	 viewBox="0 0 200.048 200.05" overflow="visible" enable-background="new 0 0 200.048 200.05" xml:space="preserve">
<linearGradient id="XMLID_2_" gradientUnits="userSpaceOnUse" x1="100.0239" y1="0" x2="100.0239" y2="200.0493">
	<stop  offset="0" style="stop-color:#1AD6FD"/>
	<stop  offset="1" style="stop-color:#1D62F0"/>
</linearGradient>
<path fill="url(#XMLID_2_)" d="M62.334,200.049c-8.037,0.01-14.293-0.217-19.381-0.619c-5.633-0.445-9.834-1.398-13.025-2.303
	c-1.51-0.428-2.807-0.934-3.98-1.451c-0.719-0.316-1.391-0.637-2.043-0.953c-1.658-0.803-3.107-1.693-4.621-2.719
	c-2.359-1.598-4.484-3.363-6.689-5.623c-1.973-2.023-3.752-4.377-5.213-6.604c-1.234-1.875-2.305-3.971-3.273-6.295
	c-0.234-0.564-0.5-1.125-0.693-1.738c-0.854-2.734-1.541-5.379-2.074-8.719c-0.264-1.643-0.486-3.326-0.658-5.063
	c-0.561-5.697-0.67-12-0.682-19.57l0.008-76.174c0.008-10.6,0.381-20.131,1.719-27.353c1.162-6.283,3.094-10.643,5.682-14.667
	c3.01-4.678,6.863-8.826,11.598-11.984c2.842-1.896,5.32-3.267,9.014-4.684c1.926-0.739,4.17-1.287,6.777-1.794
	c5.906-1.149,14.186-1.791,27.543-1.733h75.623c9.469,0.016,16.391,0.227,21.732,0.857c3.902,0.461,6.984,1.112,9.506,1.802
	c5.545,1.519,8.525,3.337,12.051,5.682c2.467,1.641,4.652,3.622,6.619,5.74c1.316,1.42,2.584,2.959,3.693,4.53
	c0.414,0.587,0.787,1.183,1.17,1.797c0.359,0.577,0.664,1.079,0.957,1.589c0.365,0.638,0.713,1.288,1.129,2.113
	c1.402,2.786,2.672,6.301,3.379,10.297c0.41,2.32,0.887,4.823,1.162,7.461c0.621,5.935,0.715,12.659,0.68,20.305l0.008,76.208
	c-0.006,6.549-0.07,11.236-0.428,16.826c-0.418,6.57-1.5,12.119-3.15,16.768c-1.008,2.836-2.229,5.338-3.639,7.531
	c-2.031,3.156-4.426,6.09-7.209,8.688c-1.34,1.25-2.729,2.307-4.281,3.418c-2.027,1.449-3.951,2.553-6.287,3.641
	c-2.088,0.975-4.525,1.857-7.795,2.629c-2.264,0.533-4.926,1.043-8.146,1.381c-5.32,0.561-12.146,0.666-21.15,0.777L62.334,200.049z
	"/>
<g>
	
		<rect x="127.348" y="104.953" transform="matrix(0.8668 -0.4986 0.4986 0.8668 -37.5366 81.3596)" fill="#FFFFFF" width="12.378" height="11.99"/>
	<path fill="#FFFFFF" d="M100.681,48.51c-1.945,1.1-4.327,2.468-4.357,2.486c-3.256,2.016-1.439,5.151-1.439,5.151l29.441,51.106
		l10.739-6.157L105.622,49.99C105.622,49.99,103.968,47.018,100.681,48.51z"/>
	<path fill="#FFFFFF" d="M94.887,79.483l-10.719-6.192l3.871-7.081c0,0,1.797-3.147,5.176-1.344c0.031,0.017,2.41,1.389,4.339,2.519
		c2.941,2.093,1.203,5.016,1.203,5.016L94.887,79.483z"/>
	
		<rect x="50.322" y="93.861" transform="matrix(0.4972 -0.8677 0.8677 0.4972 -48.6613 116.1345)" fill="#FFFFFF" width="51.086" height="12.38"/>
	<polyline fill="#FFFFFF" points="57.015,120.721 67.629,126.813 51.607,141.401 	"/>
	<path fill="#FF0000" d="M135.391,121.364"/>
	<polygon fill="#FFFFFF" points="47.435,94.504 47.435,106.461 63.013,106.445 69.87,94.489 	"/>
	<polygon fill="#FFFFFF" points="88.314,94.504 81.34,106.461 121.815,106.445 114.894,94.489 	"/>
	<polygon fill="#FFFFFF" points="155.523,94.504 133.33,94.504 140.145,106.461 155.523,106.461 	"/>
	<path fill="#FFFFFF" d="M135.029,119.155c0,0-2.704,2.588-0.823,6.762s4.057,5.761,8.172,8.054s4.997,7.996,4.997,7.996
		c5.645-9.583,1.234-19.99-0.823-22.812s-4.586-3.762-7.113-2.527L135.029,119.155z"/>
</g>
<g>
	<g>
		<path fill="#FFFFFF" d="M100.959,13.208c-48.003,0-86.917,38.914-86.917,86.916c0,48.002,38.914,86.917,86.917,86.917
			c48.002,0,86.916-38.914,86.916-86.917C187.875,52.123,148.961,13.208,100.959,13.208z M100.958,179.125c-43.63,0-79-35.368-79-79
			c0-43.631,35.37-79,79-79c43.632,0,79.001,35.37,79.001,79C179.959,143.757,144.59,179.125,100.958,179.125z"/>
	</g>
</g>
</svg>
