<?xml version="1.0" encoding="utf-8"?>
<!-- Generator: Adobe Illustrator 12.0.0, SVG Export Plug-In . SVG Version: 6.00 Build 51448)  -->
<!DOCTYPE svg PUBLIC "-//W3C//DTD SVG 1.1//EN" "http://www.w3.org/Graphics/SVG/1.1/DTD/svg11.dtd" [
	<!ENTITY ns_svg "http://www.w3.org/2000/svg">
	<!ENTITY ns_xlink "http://www.w3.org/1999/xlink">
]>
<svg  version="1.1" id="Layer_4" xmlns="&ns_svg;" xmlns:xlink="&ns_xlink;" width="576.669" height="174.453"
	 viewBox="0 0 576.669 174.453" overflow="visible" enable-background="new 0 0 576.669 174.453" xml:space="preserve">
<g>
	<polygon fill="#626467" points="277.967,121.908 294.95,121.908 308.067,84.961 292.86,81.618 	"/>
	<polygon fill="#626467" points="305.766,46.768 321.286,4.912 340.411,4.963 370.824,86.161 360.687,86.323 349.084,74.041 
		330.428,22.308 319.665,52.46 	"/>
	<path fill="#626467" d="M389.848,119.584c-22.104,11.1-44.66,2.047-60.657-14.535c-18.13-18.796-35.413-25.482-55.578-16.988
		c0.013,0.035-4.636-12.247-4.636-12.247c29.167-15.208,53.964,4.007,66.297,15.456c12.524,11.629,28.476,25.1,49.51,14.971
		L389.848,119.584z"/>
	<path fill="#626467" d="M387.115,94.539c-27.094,12.992-37.526-6.301-55.6-19.898c-16.872-12.699-37.327-19.075-58.172-10.983
		c-0.008,0.008-4.454-11.741-4.454-11.741c15.568-7.158,34.396-10.492,57.976,3.22c30.422,17.689,31.887,36.867,55.497,25.62
		L387.115,94.539z"/>
	<g>
		<path fill="#626467" d="M375.777,83.354c-4.112,1.018-5.399,0.213-7.353-1.871l-1.706,1.598c2.487,2.652,4.656,3.771,9.621,2.543
			L375.777,83.354z"/>
	</g>
	<path fill="#626467" d="M412.729,84.821v37.611h-16.106V3.182L412.729,0v70.583h4.291l27.818-30.446h20.043l-33.977,37.261
		l36.955,45.034h-19.991l-30.797-37.611H412.729z"/>
	<path fill="#626467" d="M470.417,13.178c0-5.855,4.745-10.604,10.602-10.604c5.857,0,10.603,4.748,10.603,10.604
		c0,5.857-4.745,10.604-10.603,10.604C475.162,23.782,470.417,19.035,470.417,13.178z M472.94,40.137h16.106v82.294H472.94V40.137z"
		/>
	<path fill="#626467" d="M559.022,122.432V73.257c0-12.269-6.865-20.294-19.234-20.294c-13.632,0-22.215,9.793-22.215,23.526v45.942
		h-16.206V40.137h13.379l1.564,11.916c6.363-8.936,16.51-13.583,28.073-13.583c19.89,0,30.794,13.786,30.794,34.029v49.932H559.022z
		"/>
</g>
<g>
	<path fill="#9D7728" d="M75.377,123.744c-8.986,0-18.227-3.938-18.227-12.721l-0.1-0.051c-5.554,8.582-16.459,12.771-27.667,12.771
		C13.329,123.744,0,115.164,0,98.854c0-15.851,12.521-26.857,36.048-26.857c7.118,0,14.49,1.01,19.943,2.121V69.17
		c0-12.674-8.735-17.417-20.447-17.417c-8.532,0-17.418,2.525-24.235,6.208L6.26,46.755c8.634-6.313,20.901-8.636,31.656-8.636
		c21.759,0,33.926,9.495,33.926,28.427v33.673c0,6.207,1.213,9.539,5.453,11.713L75.377,123.744z M37.359,84.366
		c-15.195,0-21.657,5.101-21.657,13.529c0,9.141,7.623,12.723,15.397,12.723c11.258,0,24.891-7.521,24.891-18.426v-5.857
		C51.345,85.375,44.126,84.366,37.359,84.366z"/>
	<path fill="#9D7728" d="M99.101,52.205c6.665-9.189,17.215-14.086,28.725-14.086c21.053,0,38.32,16.31,38.32,42.46
		c0,24.691-15.398,43.166-38.622,43.166c-10.703,0-21.003-3.938-27.062-12.42h-0.1v43.824l-16.156,3.18V39.786h13.378L99.101,52.205
		z M124.545,52.358c-16.308,0-24.637,13.883-24.637,28.828c0,16.458,10.047,28.271,25.042,28.271
		c14.539,0,24.89-11.158,24.89-28.576C149.839,62.758,138.732,52.358,124.545,52.358z"/>
	<path fill="#9D7728" d="M188.565,52.205c6.664-9.189,17.215-14.086,28.726-14.086c21.053,0,38.32,16.31,38.32,42.46
		c0,24.691-15.399,43.166-38.622,43.166c-10.703,0-21.004-3.938-27.062-12.42h-0.1v43.824l-16.157,3.18V39.786h13.378
		L188.565,52.205z M214.011,52.358c-16.308,0-24.638,13.883-24.638,28.828c0,16.458,10.047,28.271,25.041,28.271
		c14.54,0,24.89-11.158,24.89-28.576C239.304,62.758,228.197,52.358,214.011,52.358z"/>
</g>
<g>
	<path fill="#626467" d="M228.305,159.324h-11.027l-2.482,6.992h-3.819l9.723-26.269h4.295l9.848,26.269h-4.023L228.305,159.324z
		 M227.172,156.186l-4.409-12.239l-4.363,12.239H227.172z"/>
	<path fill="#626467" d="M240.342,150.632c1.496-2.063,3.865-3.161,6.448-3.161c4.726,0,8.602,3.66,8.602,9.53
		c0,5.542-3.457,9.689-8.669,9.689c-2.402,0-4.714-0.884-6.074-2.788h-0.022v9.837l-3.626,0.714v-26.608h3.003L240.342,150.632z
		 M246.054,150.666c-3.661,0-5.53,3.116-5.53,6.471c0,3.694,2.255,6.347,5.621,6.347c3.264,0,5.587-2.505,5.587-6.414
		C251.731,153.001,249.238,150.666,246.054,150.666z"/>
	<path fill="#626467" d="M262.46,150.632c1.496-2.063,3.865-3.161,6.448-3.161c4.726,0,8.602,3.66,8.602,9.53
		c0,5.542-3.457,9.689-8.669,9.689c-2.402,0-4.714-0.884-6.074-2.788h-0.022v9.837l-3.626,0.714v-26.608h3.003L262.46,150.632z
		 M268.172,150.666c-3.661,0-5.53,3.116-5.53,6.471c0,3.694,2.255,6.347,5.621,6.347c3.264,0,5.587-2.505,5.587-6.414
		C273.849,153.001,271.356,150.666,268.172,150.666z"/>
	<path fill="#626467" d="M295.85,163.631c1.756,0,3.739-0.556,3.739-2.357c0-4.023-9.87-1.496-9.87-8.272
		c0-3.751,3.014-5.53,6.72-5.53c2.244,0,4.408,0.657,6.177,1.96l-1.462,2.414c-1.258-0.839-3.015-1.371-4.533-1.371
		c-1.632,0-3.366,0.612-3.366,2.277c0,3.979,9.928,1.621,9.928,8.353c0,3.853-3.253,5.587-7.185,5.587
		c-2.788,0-4.715-0.873-6.981-2.538l1.711-2.335C292.292,162.928,293.867,163.631,295.85,163.631z"/>
	<path fill="#626467" d="M315.009,166.69c-5.179,0-9.417-3.366-9.417-9.485c0-5.961,4.034-9.734,9.156-9.734
		c5.304,0,8.669,4.034,8.669,9.225c0,0.601-0.045,1.201-0.09,1.519h-14.064c0.329,3.365,2.63,5.371,5.916,5.371
		c1.915,0,3.91-0.68,5.372-1.802l1.665,2.289C320.437,165.716,317.797,166.69,315.009,166.69z M319.836,155.551
		c-0.203-2.663-1.926-4.976-5.054-4.976c-2.913,0-5.032,2.006-5.463,4.976H319.836z"/>
	<path fill="#626467" d="M342.329,166.69c-2.018,0-4.091-0.884-4.091-2.855l-0.022-0.012c-1.247,1.927-3.695,2.867-6.211,2.867
		c-3.604,0-6.596-1.927-6.596-5.587c0-3.559,2.811-6.029,8.092-6.029c1.598,0,3.253,0.227,4.477,0.477v-1.111
		c0-2.844-1.961-3.909-4.59-3.909c-1.915,0-3.91,0.566-5.439,1.394l-1.134-2.516c1.938-1.416,4.692-1.938,7.105-1.938
		c4.885,0,7.616,2.13,7.616,6.38v7.559c0,1.395,0.271,2.142,1.224,2.629L342.329,166.69z M333.795,157.851
		c-3.411,0-4.862,1.145-4.862,3.037c0,2.052,1.712,2.856,3.457,2.856c2.527,0,5.587-1.688,5.587-4.137v-1.314
		C336.934,158.078,335.314,157.851,333.795,157.851z"/>
	<path fill="#626467" d="M346.551,147.845h3.004l0.351,2.878l0.023,0.012c1.064-2.255,2.595-3.264,5.1-3.264
		c0.838,0,1.688,0.113,2.459,0.317l-0.556,3.343c-0.702-0.216-1.371-0.329-2.085-0.329c-3.842,0-4.691,3.298-4.691,7.117v8.397
		h-3.604V147.845z"/>
	<path fill="#626467" d="M374.086,164.594c-1.858,1.36-4.103,2.097-6.425,2.097c-4.828,0-9.542-3.196-9.542-9.497
		c0-6.028,4.328-9.723,9.609-9.723c2.153,0,4.432,0.611,6.143,1.858l-1.564,2.595c-1.234-0.781-2.924-1.269-4.453-1.269
		c-3.502,0-6.108,2.572-6.108,6.425c0,3.831,2.572,6.414,6.04,6.414c1.541,0,3.275-0.51,4.521-1.337L374.086,164.594z"/>
	<path fill="#626467" d="M390.322,166.316v-10.573c0-2.924-1.394-5.021-4.352-5.021c-2.901,0-5.179,2.018-5.179,4.941v10.652h-3.627
		v-26.768l3.627-0.714v11.39c1.359-1.836,3.683-2.754,6.119-2.754c4.488,0,7.038,3.094,7.038,7.638v11.208H390.322z"/>
	<path fill="#626467" d="M405.024,147.845h3.343v-5.757l3.604-0.715v6.472h4.692v3.128h-4.692v8.159c0,3.502,1.53,4.068,4.114,4.601
		l-0.442,2.958c-3.615,0-7.275-1.791-7.275-6.301v-9.417h-3.343V147.845z"/>
	<path fill="#626467" d="M432.796,166.316v-10.573c0-2.924-1.394-5.021-4.352-5.021c-2.901,0-5.179,2.018-5.179,4.941v10.652h-3.627
		v-26.768l3.627-0.714v11.39c1.359-1.836,3.683-2.754,6.119-2.754c4.488,0,7.038,3.094,7.038,7.638v11.208H432.796z"/>
	<path fill="#626467" d="M456.478,166.69c-2.018,0-4.091-0.884-4.091-2.855l-0.022-0.012c-1.247,1.927-3.695,2.867-6.211,2.867
		c-3.604,0-6.596-1.927-6.596-5.587c0-3.559,2.811-6.029,8.092-6.029c1.598,0,3.253,0.227,4.477,0.477v-1.111
		c0-2.844-1.961-3.909-4.59-3.909c-1.915,0-3.91,0.566-5.439,1.394l-1.134-2.516c1.938-1.416,4.692-1.938,7.105-1.938
		c4.885,0,7.616,2.13,7.616,6.38v7.559c0,1.395,0.271,2.142,1.224,2.629L456.478,166.69z M447.945,157.851
		c-3.411,0-4.862,1.145-4.862,3.037c0,2.052,1.712,2.856,3.457,2.856c2.527,0,5.587-1.688,5.587-4.137v-1.314
		C451.083,158.078,449.463,157.851,447.945,157.851z"/>
	<path fill="#626467" d="M458.458,147.845h3.343v-5.757l3.604-0.715v6.472h4.692v3.128h-4.692v8.159c0,3.502,1.53,4.068,4.114,4.601
		l-0.442,2.958c-3.615,0-7.275-1.791-7.275-6.301v-9.417h-3.343V147.845z"/>
	<path fill="#626467" d="M483.63,147.845l4.375,14.177l4.363-14.177h3.638l4.362,14.177l4.624-14.177h3.683l-6.55,18.472h-3.604
		l-4.397-14.199l-4.42,14.199h-3.614l-6.414-18.472H483.63z"/>
	<path fill="#626467" d="M509.964,157.104c0-5.689,4.114-9.633,9.497-9.633c5.338,0,9.451,3.875,9.451,9.553
		c0,5.7-4.159,9.667-9.52,9.667C514.056,166.69,509.964,162.77,509.964,157.104z M525.23,157.047c0-3.74-2.482-6.369-5.791-6.369
		c-3.31,0-5.813,2.617-5.813,6.392c0,3.751,2.47,6.437,5.768,6.437S525.23,160.82,525.23,157.047z"/>
	<path fill="#626467" d="M532.581,147.845h3.004l0.351,2.878l0.023,0.012c1.064-2.255,2.595-3.264,5.1-3.264
		c0.838,0,1.688,0.113,2.459,0.317l-0.556,3.343c-0.702-0.216-1.371-0.329-2.085-0.329c-3.842,0-4.691,3.298-4.691,7.117v8.397
		h-3.604V147.845z"/>
	<path fill="#626467" d="M549.485,157.874v8.442h-3.615v-26.768l3.615-0.714v15.843h0.964l6.244-6.833h4.499l-7.627,8.363
		l8.295,10.108h-4.487l-6.913-8.442H549.485z"/>
	<path fill="#626467" d="M569.337,163.631c1.756,0,3.739-0.556,3.739-2.357c0-4.023-9.87-1.496-9.87-8.272
		c0-3.751,3.015-5.53,6.72-5.53c2.244,0,4.408,0.657,6.177,1.96l-1.462,2.414c-1.258-0.839-3.015-1.371-4.533-1.371
		c-1.632,0-3.366,0.612-3.366,2.277c0,3.979,9.928,1.621,9.928,8.353c0,3.853-3.253,5.587-7.185,5.587
		c-2.788,0-4.715-0.873-6.981-2.538l1.712-2.335C565.779,162.928,567.354,163.631,569.337,163.631z"/>
</g>
</svg>
