<?xml version="1.0" encoding="utf-8"?>
<!-- Generator: Adobe Illustrator 12.0.0, SVG Export Plug-In . SVG Version: 6.00 Build 51448)  -->
<!DOCTYPE svg PUBLIC "-//W3C//DTD SVG 1.1//EN" "http://www.w3.org/Graphics/SVG/1.1/DTD/svg11.dtd" [
	<!ENTITY ns_svg "http://www.w3.org/2000/svg">
	<!ENTITY ns_xlink "http://www.w3.org/1999/xlink">
]>
<svg  version="1.1" xmlns="&ns_svg;" xmlns:xlink="&ns_xlink;" width="575.177" height="158.329" viewBox="0 0 575.177 158.329"
	 overflow="visible" enable-background="new 0 0 575.177 158.329" xml:space="preserve">
<g id="Layer_1">
	<g>
		<polygon fill="#BBBCBE" points="277.967,121.909 294.95,121.909 308.067,84.961 292.86,81.618 		"/>
		<polygon fill="#BBBCBE" points="305.766,46.768 321.286,4.912 340.411,4.963 370.824,86.161 360.687,86.323 349.084,74.041 
			330.428,22.308 319.665,52.46 		"/>
		<path fill="#BBBCBE" d="M389.848,119.584c-22.104,11.1-44.66,2.047-60.657-14.535c-18.13-18.797-35.413-25.482-55.578-16.988
			c0.013,0.035-4.636-12.248-4.636-12.248c29.167-15.208,53.964,4.007,66.297,15.457c12.524,11.629,28.476,25.1,49.51,14.971
			L389.848,119.584z"/>
		<path fill="#BBBCBE" d="M387.115,94.54c-27.094,12.992-37.526-6.301-55.6-19.898c-16.872-12.699-37.327-19.075-58.172-10.983
			c-0.008,0.008-4.454-11.741-4.454-11.741c15.568-7.158,34.396-10.492,57.976,3.22c30.422,17.689,31.887,36.868,55.497,25.62
			L387.115,94.54z"/>
		<g>
			<path fill="#BBBCBE" d="M375.777,83.354c-4.112,1.018-5.399,0.213-7.353-1.871l-1.706,1.598c2.487,2.652,4.656,3.771,9.621,2.543
				L375.777,83.354z"/>
		</g>
		<path fill="#BBBCBE" d="M412.729,84.821v37.611h-16.106V3.182L412.729,0v70.583h4.291l27.818-30.446h20.043l-33.977,37.261
			l36.955,45.034h-19.991l-30.797-37.611H412.729z"/>
		<path fill="#BBBCBE" d="M470.417,13.178c0-5.855,4.745-10.604,10.602-10.604c5.857,0,10.603,4.748,10.603,10.604
			c0,5.857-4.745,10.604-10.603,10.604C475.162,23.782,470.417,19.035,470.417,13.178z M472.94,40.137h16.106v82.295H472.94V40.137z
			"/>
		<path fill="#BBBCBE" d="M559.022,122.432V73.257c0-12.269-6.865-20.294-19.234-20.294c-13.632,0-22.215,9.793-22.215,23.526
			v45.943h-16.206V40.137h13.379l1.564,11.916c6.363-8.936,16.51-13.583,28.073-13.583c19.89,0,30.794,13.786,30.794,34.029v49.933
			H559.022z"/>
	</g>
	<g>
		<path fill="#D5A764" d="M75.377,123.745c-8.986,0-18.227-3.938-18.227-12.721l-0.1-0.051
			c-5.554,8.582-16.459,12.771-27.667,12.771C13.329,123.745,0,115.165,0,98.854c0-15.852,12.521-26.857,36.048-26.857
			c7.118,0,14.49,1.01,19.943,2.121V69.17c0-12.674-8.735-17.417-20.447-17.417c-8.532,0-17.418,2.525-24.235,6.208L6.26,46.755
			c8.634-6.313,20.901-8.636,31.656-8.636c21.759,0,33.926,9.495,33.926,28.427v33.674c0,6.207,1.213,9.539,5.453,11.713
			L75.377,123.745z M37.359,84.366c-15.195,0-21.657,5.102-21.657,13.529c0,9.141,7.623,12.723,15.397,12.723
			c11.258,0,24.891-7.521,24.891-18.426v-5.857C51.345,85.375,44.126,84.366,37.359,84.366z"/>
		<path fill="#D5A764" d="M99.101,52.205c6.665-9.189,17.215-14.086,28.725-14.086c21.053,0,38.32,16.31,38.32,42.46
			c0,24.691-15.398,43.166-38.622,43.166c-10.703,0-21.003-3.938-27.062-12.42h-0.1v43.824l-16.156,3.18V39.786h13.378
			L99.101,52.205z M124.545,52.358c-16.308,0-24.637,13.883-24.637,28.828c0,16.459,10.047,28.271,25.042,28.271
			c14.539,0,24.89-11.158,24.89-28.576C149.839,62.758,138.732,52.358,124.545,52.358z"/>
		<path fill="#D5A764" d="M188.565,52.205c6.664-9.189,17.215-14.086,28.726-14.086c21.053,0,38.32,16.31,38.32,42.46
			c0,24.691-15.399,43.166-38.622,43.166c-10.703,0-21.004-3.938-27.062-12.42h-0.1v43.824l-16.157,3.18V39.786h13.378
			L188.565,52.205z M214.011,52.358c-16.308,0-24.638,13.883-24.638,28.828c0,16.459,10.047,28.271,25.041,28.271
			c14.54,0,24.89-11.158,24.89-28.576C239.304,62.758,228.197,52.358,214.011,52.358z"/>
	</g>
</g>
<g id="Layer_4" display="none">
	<g display="inline">
		<polygon fill="#626467" points="277.967,121.909 294.95,121.909 308.067,84.961 292.86,81.618 		"/>
		<polygon fill="#626467" points="305.766,46.768 321.286,4.912 340.411,4.963 370.824,86.161 360.687,86.323 349.084,74.041 
			330.428,22.308 319.665,52.46 		"/>
		<path fill="#626467" d="M389.848,119.584c-22.104,11.1-44.66,2.047-60.657-14.535c-18.13-18.797-35.413-25.482-55.578-16.988
			c0.013,0.035-4.636-12.248-4.636-12.248c29.167-15.208,53.964,4.007,66.297,15.457c12.524,11.629,28.476,25.1,49.51,14.971
			L389.848,119.584z"/>
		<path fill="#626467" d="M387.115,94.54c-27.094,12.992-37.526-6.301-55.6-19.898c-16.872-12.699-37.327-19.075-58.172-10.983
			c-0.008,0.008-4.454-11.741-4.454-11.741c15.568-7.158,34.396-10.492,57.976,3.22c30.422,17.689,31.887,36.868,55.497,25.62
			L387.115,94.54z"/>
		<g>
			<path fill="#626467" d="M375.777,83.354c-4.112,1.018-5.399,0.213-7.353-1.871l-1.706,1.598c2.487,2.652,4.656,3.771,9.621,2.543
				L375.777,83.354z"/>
		</g>
		<path fill="#626467" d="M412.729,84.821v37.611h-16.106V3.182L412.729,0v70.583h4.291l27.818-30.446h20.043l-33.977,37.261
			l36.955,45.034h-19.991l-30.797-37.611H412.729z"/>
		<path fill="#626467" d="M470.417,13.178c0-5.855,4.745-10.604,10.602-10.604c5.857,0,10.603,4.748,10.603,10.604
			c0,5.857-4.745,10.604-10.603,10.604C475.162,23.782,470.417,19.035,470.417,13.178z M472.94,40.137h16.106v82.295H472.94V40.137z
			"/>
		<path fill="#626467" d="M559.022,122.432V73.257c0-12.269-6.865-20.294-19.234-20.294c-13.632,0-22.215,9.793-22.215,23.526
			v45.943h-16.206V40.137h13.379l1.564,11.916c6.363-8.936,16.51-13.583,28.073-13.583c19.89,0,30.794,13.786,30.794,34.029v49.933
			H559.022z"/>
	</g>
	<g display="inline">
		<path fill="#C17E1B" d="M75.377,123.745c-8.986,0-18.227-3.938-18.227-12.721l-0.1-0.051
			c-5.554,8.582-16.459,12.771-27.667,12.771C13.329,123.745,0,115.165,0,98.854c0-15.852,12.521-26.857,36.048-26.857
			c7.118,0,14.49,1.01,19.943,2.121V69.17c0-12.674-8.735-17.417-20.447-17.417c-8.532,0-17.418,2.525-24.235,6.208L6.26,46.755
			c8.634-6.313,20.901-8.636,31.656-8.636c21.759,0,33.926,9.495,33.926,28.427v33.674c0,6.207,1.213,9.539,5.453,11.713
			L75.377,123.745z M37.359,84.366c-15.195,0-21.657,5.102-21.657,13.529c0,9.141,7.623,12.723,15.397,12.723
			c11.258,0,24.891-7.521,24.891-18.426v-5.857C51.345,85.375,44.126,84.366,37.359,84.366z"/>
		<path fill="#C17E1B" d="M99.101,52.205c6.665-9.189,17.215-14.086,28.725-14.086c21.053,0,38.32,16.31,38.32,42.46
			c0,24.691-15.398,43.166-38.622,43.166c-10.703,0-21.003-3.938-27.062-12.42h-0.1v43.824l-16.156,3.18V39.786h13.378
			L99.101,52.205z M124.545,52.358c-16.308,0-24.637,13.883-24.637,28.828c0,16.459,10.047,28.271,25.042,28.271
			c14.539,0,24.89-11.158,24.89-28.576C149.839,62.758,138.732,52.358,124.545,52.358z"/>
		<path fill="#C17E1B" d="M188.565,52.205c6.664-9.189,17.215-14.086,28.726-14.086c21.053,0,38.32,16.31,38.32,42.46
			c0,24.691-15.399,43.166-38.622,43.166c-10.703,0-21.004-3.938-27.062-12.42h-0.1v43.824l-16.157,3.18V39.786h13.378
			L188.565,52.205z M214.011,52.358c-16.308,0-24.638,13.883-24.638,28.828c0,16.459,10.047,28.271,25.041,28.271
			c14.54,0,24.89-11.158,24.89-28.576C239.304,62.758,228.197,52.358,214.011,52.358z"/>
	</g>
</g>
</svg>
