<?xml version="1.0" encoding="utf-8"?>
<!-- Generator: Adobe Illustrator 12.0.0, SVG Export Plug-In . SVG Version: 6.00 Build 51448)  -->
<!DOCTYPE svg PUBLIC "-//W3C//DTD SVG 1.1//EN" "http://www.w3.org/Graphics/SVG/1.1/DTD/svg11.dtd" [
	<!ENTITY ns_svg "http://www.w3.org/2000/svg">
	<!ENTITY ns_xlink "http://www.w3.org/1999/xlink">
]>
<svg  version="1.1" id="Layer_4" xmlns="&ns_svg;" xmlns:xlink="&ns_xlink;" width="578.274" height="175.9"
	 viewBox="0 0 578.274 175.9" overflow="visible" enable-background="new 0 0 578.274 175.9" xml:space="preserve">
<g>
	<polygon fill="#626467" points="277.967,121.908 294.95,121.908 308.067,84.961 292.86,81.618 	"/>
	<polygon fill="#626467" points="305.766,46.768 321.286,4.912 340.411,4.963 370.824,86.161 360.687,86.323 349.084,74.041 
		330.428,22.308 319.665,52.46 	"/>
	<path fill="#626467" d="M389.848,119.584c-22.104,11.1-44.66,2.047-60.657-14.535c-18.13-18.796-35.413-25.482-55.578-16.988
		c0.013,0.035-4.636-12.247-4.636-12.247c29.167-15.208,53.964,4.007,66.297,15.456c12.524,11.629,28.476,25.1,49.51,14.971
		L389.848,119.584z"/>
	<path fill="#626467" d="M387.115,94.539c-27.094,12.992-37.526-6.301-55.6-19.898c-16.872-12.699-37.327-19.075-58.172-10.983
		c-0.008,0.008-4.454-11.741-4.454-11.741c15.568-7.158,34.396-10.492,57.976,3.22c30.422,17.689,31.887,36.867,55.497,25.62
		L387.115,94.539z"/>
	<g>
		<path fill="#626467" d="M375.777,83.354c-4.112,1.018-5.399,0.213-7.353-1.871l-1.706,1.598c2.487,2.652,4.656,3.771,9.621,2.543
			L375.777,83.354z"/>
	</g>
	<path fill="#626467" d="M412.729,84.821v37.611h-16.106V3.182L412.729,0v70.583h4.291l27.818-30.446h20.043l-33.977,37.261
		l36.955,45.034h-19.991l-30.797-37.611H412.729z"/>
	<path fill="#626467" d="M470.417,13.178c0-5.855,4.745-10.604,10.602-10.604c5.857,0,10.603,4.748,10.603,10.604
		c0,5.857-4.745,10.604-10.603,10.604C475.162,23.782,470.417,19.035,470.417,13.178z M472.94,40.137h16.106v82.294H472.94V40.137z"
		/>
	<path fill="#626467" d="M559.022,122.432V73.257c0-12.269-6.865-20.294-19.234-20.294c-13.632,0-22.215,9.793-22.215,23.526v45.942
		h-16.206V40.137h13.379l1.564,11.916c6.363-8.936,16.51-13.583,28.073-13.583c19.89,0,30.794,13.786,30.794,34.029v49.932H559.022z
		"/>
</g>
<g>
	<path fill="#9D7728" d="M75.377,123.744c-8.986,0-18.227-3.938-18.227-12.721l-0.1-0.051c-5.554,8.582-16.459,12.771-27.667,12.771
		C13.329,123.744,0,115.164,0,98.854c0-15.851,12.521-26.857,36.048-26.857c7.118,0,14.49,1.01,19.943,2.121V69.17
		c0-12.674-8.735-17.417-20.447-17.417c-8.532,0-17.418,2.525-24.235,6.208L6.26,46.755c8.634-6.313,20.901-8.636,31.656-8.636
		c21.759,0,33.926,9.495,33.926,28.427v33.673c0,6.207,1.213,9.539,5.453,11.713L75.377,123.744z M37.359,84.366
		c-15.195,0-21.657,5.101-21.657,13.529c0,9.141,7.623,12.723,15.397,12.723c11.258,0,24.891-7.521,24.891-18.426v-5.857
		C51.345,85.375,44.126,84.366,37.359,84.366z"/>
	<path fill="#9D7728" d="M99.101,52.205c6.665-9.189,17.215-14.086,28.725-14.086c21.053,0,38.32,16.31,38.32,42.46
		c0,24.691-15.398,43.166-38.622,43.166c-10.703,0-21.003-3.938-27.062-12.42h-0.1v43.824l-16.156,3.18V39.786h13.378L99.101,52.205
		z M124.545,52.358c-16.308,0-24.637,13.883-24.637,28.828c0,16.458,10.047,28.271,25.042,28.271
		c14.539,0,24.89-11.158,24.89-28.576C149.839,62.758,138.732,52.358,124.545,52.358z"/>
	<path fill="#9D7728" d="M188.565,52.205c6.664-9.189,17.215-14.086,28.726-14.086c21.053,0,38.32,16.31,38.32,42.46
		c0,24.691-15.399,43.166-38.622,43.166c-10.703,0-21.004-3.938-27.062-12.42h-0.1v43.824l-16.157,3.18V39.786h13.378
		L188.565,52.205z M214.011,52.358c-16.308,0-24.638,13.883-24.638,28.828c0,16.458,10.047,28.271,25.041,28.271
		c14.54,0,24.89-11.158,24.89-28.576C239.304,62.758,228.197,52.358,214.011,52.358z"/>
</g>
<g>
	<path fill="#4E5054" d="M221.985,160.217h-11.431l-2.574,7.248h-3.958l10.08-27.232h4.452l10.21,27.232h-4.171L221.985,160.217z
		 M220.81,156.962l-4.571-12.689l-4.522,12.689H220.81z"/>
	<path fill="#4E5054" d="M235.401,151.205c1.551-2.139,4.007-3.278,6.686-3.278c4.898,0,8.917,3.795,8.917,9.881
		c0,5.745-3.583,10.045-8.987,10.045c-2.49,0-4.887-0.917-6.297-2.891h-0.023v10.196l-3.759,0.742v-27.586h3.114L235.401,151.205z
		 M241.322,151.24c-3.795,0-5.733,3.23-5.733,6.709c0,3.829,2.337,6.579,5.827,6.579c3.383,0,5.792-2.597,5.792-6.65
		C247.208,153.66,244.624,151.24,241.322,151.24z"/>
	<path fill="#4E5054" d="M258.721,151.205c1.551-2.139,4.007-3.278,6.686-3.278c4.898,0,8.916,3.795,8.916,9.881
		c0,5.745-3.583,10.045-8.987,10.045c-2.491,0-4.887-0.917-6.297-2.891h-0.024v10.196l-3.759,0.742v-27.586h3.114L258.721,151.205z
		 M264.643,151.24c-3.795,0-5.733,3.23-5.733,6.709c0,3.829,2.337,6.579,5.827,6.579c3.383,0,5.792-2.597,5.792-6.65
		C270.529,153.66,267.944,151.24,264.643,151.24z"/>
	<path fill="#4E5054" d="M294.12,164.679c1.82,0,3.876-0.575,3.876-2.443c0-4.17-10.232-1.551-10.232-8.575
		c0-3.889,3.125-5.733,6.967-5.733c2.326,0,4.57,0.683,6.402,2.032l-1.515,2.503c-1.305-0.87-3.125-1.421-4.7-1.421
		c-1.69,0-3.489,0.635-3.489,2.361c0,4.122,10.292,1.679,10.292,8.657c0,3.994-3.371,5.793-7.449,5.793
		c-2.89,0-4.887-0.906-7.236-2.633l1.774-2.42C290.43,163.952,292.063,164.679,294.12,164.679z"/>
	<path fill="#4E5054" d="M314.373,167.853c-5.368,0-9.762-3.489-9.762-9.833c0-6.18,4.181-10.093,9.491-10.093
		c5.498,0,8.987,4.183,8.987,9.563c0,0.623-0.047,1.244-0.094,1.573h-14.579c0.341,3.489,2.726,5.569,6.132,5.569
		c1.986,0,4.054-0.705,5.569-1.867l1.728,2.372C320,166.842,317.263,167.853,314.373,167.853z M319.377,156.303
		c-0.211-2.761-1.997-5.156-5.24-5.156c-3.019,0-5.215,2.08-5.662,5.156H319.377z"/>
	<path fill="#4E5054" d="M343.085,167.853c-2.091,0-4.24-0.917-4.24-2.961l-0.023-0.012c-1.292,1.998-3.83,2.973-6.438,2.973
		c-3.735,0-6.837-1.998-6.837-5.793c0-3.688,2.914-6.25,8.388-6.25c1.657,0,3.372,0.235,4.641,0.493v-1.151
		c0-2.948-2.032-4.053-4.758-4.053c-1.985,0-4.053,0.589-5.639,1.445l-1.175-2.608c2.009-1.468,4.863-2.009,7.366-2.009
		c5.063,0,7.894,2.21,7.894,6.615v7.835c0,1.445,0.282,2.22,1.27,2.727L343.085,167.853z M334.24,158.688
		c-3.536,0-5.04,1.186-5.04,3.149c0,2.126,1.773,2.96,3.583,2.96c2.62,0,5.792-1.752,5.792-4.289v-1.363
		C337.495,158.924,335.815,158.688,334.24,158.688z"/>
	<path fill="#4E5054" d="M347.855,148.314h3.114l0.364,2.984l0.022,0.012c1.105-2.338,2.691-3.384,5.287-3.384
		c0.869,0,1.75,0.118,2.549,0.328l-0.575,3.467c-0.729-0.224-1.422-0.341-2.161-0.341c-3.983,0-4.864,3.419-4.864,7.379v8.705
		h-3.736V148.314z"/>
	<path fill="#4E5054" d="M376.792,165.679c-1.927,1.409-4.253,2.174-6.661,2.174c-5.005,0-9.892-3.313-9.892-9.847
		c0-6.248,4.487-10.079,9.963-10.079c2.231,0,4.593,0.635,6.366,1.927l-1.621,2.69c-1.28-0.811-3.03-1.315-4.616-1.315
		c-3.63,0-6.333,2.667-6.333,6.661c0,3.971,2.668,6.649,6.262,6.649c1.598,0,3.396-0.529,4.688-1.386L376.792,165.679z"/>
	<path fill="#4E5054" d="M394.015,167.465v-10.961c0-3.031-1.446-5.205-4.512-5.205c-3.008,0-5.369,2.092-5.369,5.122v11.044h-3.76
		v-27.75l3.76-0.74v11.809c1.409-1.904,3.818-2.856,6.345-2.856c4.651,0,7.295,3.208,7.295,7.919v11.619H394.015z"/>
	<path fill="#4E5054" d="M414.268,148.314l4.534,14.697l4.524-14.697h3.77l4.524,14.697l4.793-14.697h3.818l-6.792,19.15h-3.734
		l-4.56-14.721l-4.581,14.721h-3.748l-6.648-19.15H414.268z"/>
	<path fill="#4E5054" d="M443.111,142.041c0-1.363,1.104-2.466,2.467-2.466c1.363,0,2.468,1.103,2.468,2.466
		s-1.104,2.467-2.468,2.467C444.215,144.508,443.111,143.404,443.111,142.041z M443.698,148.314h3.748v19.15h-3.748V148.314z"/>
	<path fill="#4E5054" d="M450.735,148.314h3.466v-5.967l3.735-0.74v6.707h4.864v3.243h-4.864v8.458c0,3.631,1.587,4.218,4.266,4.771
		l-0.458,3.066c-3.749,0-7.543-1.856-7.543-6.533v-9.762h-3.466V148.314z"/>
	<path fill="#4E5054" d="M479.918,167.465v-10.961c0-3.031-1.445-5.205-4.512-5.205c-3.007,0-5.368,2.092-5.368,5.122v11.044h-3.76
		v-27.75l3.76-0.74v11.809c1.409-1.904,3.818-2.856,6.344-2.856c4.651,0,7.295,3.208,7.295,7.919v11.619H479.918z"/>
	<path fill="#4E5054" d="M514.21,165.679c-1.928,1.409-4.253,2.174-6.661,2.174c-5.005,0-9.892-3.313-9.892-9.847
		c0-6.248,4.487-10.079,9.962-10.079c2.232,0,4.594,0.635,6.367,1.927l-1.621,2.69c-1.28-0.811-3.031-1.315-4.617-1.315
		c-3.63,0-6.332,2.667-6.332,6.661c0,3.971,2.667,6.649,6.262,6.649c1.598,0,3.396-0.529,4.688-1.386L514.21,165.679z"/>
	<path fill="#4E5054" d="M517.723,139.715l3.735-0.74v23.121c0,1.443,0.259,2.209,1.34,2.761l-0.493,2.996
		c-2.397,0-4.582-1.411-4.582-4.418V139.715z"/>
	<path fill="#4E5054" d="M543.158,167.853c-2.091,0-4.241-0.917-4.241-2.961l-0.022-0.012c-1.293,1.998-3.831,2.973-6.438,2.973
		c-3.736,0-6.838-1.998-6.838-5.793c0-3.688,2.914-6.25,8.389-6.25c1.656,0,3.371,0.235,4.64,0.493v-1.151
		c0-2.948-2.032-4.053-4.758-4.053c-1.984,0-4.052,0.589-5.639,1.445l-1.175-2.608c2.009-1.468,4.863-2.009,7.366-2.009
		c5.063,0,7.895,2.21,7.895,6.615v7.835c0,1.445,0.282,2.22,1.269,2.727L543.158,167.853z M534.312,158.688
		c-3.536,0-5.04,1.186-5.04,3.149c0,2.126,1.773,2.96,3.583,2.96c2.619,0,5.791-1.752,5.791-4.289v-1.363
		C537.566,158.924,535.886,158.688,534.312,158.688z"/>
	<path fill="#4E5054" d="M553.473,164.679c1.82,0,3.877-0.575,3.877-2.443c0-4.17-10.232-1.551-10.232-8.575
		c0-3.889,3.125-5.733,6.967-5.733c2.326,0,4.569,0.683,6.402,2.032l-1.516,2.503c-1.304-0.87-3.125-1.421-4.699-1.421
		c-1.691,0-3.489,0.635-3.489,2.361c0,4.122,10.292,1.679,10.292,8.657c0,3.994-3.372,5.793-7.449,5.793
		c-2.89,0-4.887-0.906-7.236-2.633l1.773-2.42C549.785,163.952,551.417,164.679,553.473,164.679z"/>
	<path fill="#4E5054" d="M570.672,164.679c1.82,0,3.877-0.575,3.877-2.443c0-4.17-10.233-1.551-10.233-8.575
		c0-3.889,3.126-5.733,6.968-5.733c2.326,0,4.569,0.683,6.402,2.032l-1.516,2.503c-1.304-0.87-3.125-1.421-4.699-1.421
		c-1.691,0-3.489,0.635-3.489,2.361c0,4.122,10.292,1.679,10.292,8.657c0,3.994-3.372,5.793-7.449,5.793
		c-2.89,0-4.887-0.906-7.237-2.633l1.774-2.42C566.984,163.952,568.617,164.679,570.672,164.679z"/>
</g>
</svg>
