<?xml version="1.0" encoding="utf-8"?>
<!-- Generator: Adobe Illustrator 12.0.0, SVG Export Plug-In . SVG Version: 6.00 Build 51448)  -->
<!DOCTYPE svg PUBLIC "-//W3C//DTD SVG 1.1//EN" "http://www.w3.org/Graphics/SVG/1.1/DTD/svg11.dtd" [
	<!ENTITY ns_svg "http://www.w3.org/2000/svg">
	<!ENTITY ns_xlink "http://www.w3.org/1999/xlink">
]>
<svg  version="1.1" id="Layer_1" xmlns="&ns_svg;" xmlns:xlink="&ns_xlink;" width="200" height="67.142" viewBox="0 0 200 67.142"
	 overflow="visible" enable-background="new 0 0 200 67.142" xml:space="preserve">
<rect fill="#9D7728" width="200" height="67.142"/>
<g>
	<path fill="#FFFFFF" d="M46.344,42.542c0,3.597-1.295,6.433-3.885,8.505c-2.59,2.072-6.194,3.105-10.811,3.105
		c-4.253,0-8.016-0.8-11.288-2.399v-7.852c2.69,1.199,4.967,2.044,6.83,2.535c1.863,0.491,3.567,0.736,5.112,0.736
		c1.854,0,3.276-0.353,4.267-1.062c0.991-0.709,1.486-1.763,1.486-3.162c0-0.779-0.218-1.476-0.654-2.084
		c-0.437-0.609-1.077-1.195-1.922-1.759s-2.567-1.463-5.167-2.699c-2.436-1.145-4.262-2.242-5.48-3.297
		c-1.218-1.055-2.19-2.281-2.917-3.681c-0.727-1.399-1.091-3.034-1.091-4.907c0-3.525,1.195-6.297,3.585-8.314
		c2.39-2.017,5.694-3.025,9.911-3.025c2.072,0,4.049,0.245,5.93,0.736c1.881,0.491,3.849,1.181,5.903,2.072l-2.727,6.571
		c-2.126-0.873-3.885-1.481-5.276-1.827c-1.391-0.345-2.758-0.518-4.104-0.518c-1.6,0-2.826,0.373-3.681,1.117
		c-0.854,0.745-1.281,1.717-1.281,2.916c0,0.745,0.172,1.395,0.518,1.95c0.345,0.554,0.895,1.089,1.649,1.607s2.54,1.45,5.357,2.794
		c3.727,1.781,6.28,3.567,7.662,5.356S46.344,39.942,46.344,42.542z"/>
	<path fill="#FFFFFF" d="M89.763,33.618c0,6.599-1.637,11.673-4.91,15.218s-7.963,5.316-14.073,5.316
		c-6.11,0-10.801-1.771-14.074-5.316c-3.273-3.545-4.909-8.637-4.909-15.272s1.641-11.704,4.922-15.204
		c3.282-3.499,7.987-5.25,14.115-5.25c6.127,0,10.813,1.764,14.059,5.291C88.14,21.928,89.763,27,89.763,33.618z M60.659,33.618
		c0,4.454,0.845,7.811,2.537,10.064c1.692,2.254,4.22,3.381,7.585,3.381c6.747,0,10.121-4.48,10.121-13.445
		c0-8.983-3.356-13.474-10.066-13.474c-3.365,0-5.902,1.132-7.612,3.396C61.513,25.804,60.659,29.164,60.659,33.618z"/>
	<path fill="#FFFFFF" d="M134.207,33.618c0,6.599-1.638,11.673-4.91,15.218c-3.273,3.545-7.964,5.316-14.074,5.316
		c-6.108,0-10.8-1.771-14.073-5.316c-3.273-3.545-4.909-8.637-4.909-15.272s1.641-11.704,4.922-15.204
		c3.282-3.499,7.987-5.25,14.114-5.25c6.128,0,10.814,1.764,14.061,5.291C132.583,21.928,134.207,27,134.207,33.618z
		 M105.101,33.618c0,4.454,0.846,7.811,2.537,10.064s4.22,3.381,7.584,3.381c6.749,0,10.123-4.48,10.123-13.445
		c0-8.983-3.356-13.474-10.068-13.474c-3.364,0-5.901,1.132-7.611,3.396C105.956,25.804,105.101,29.164,105.101,33.618z"/>
	<path fill="#FFFFFF" d="M177.824,53.607h-10.745l-17.344-30.168h-0.245c0.345,5.328,0.518,9.128,0.518,11.402v18.767h-7.553V13.728
		h10.663l17.317,29.869h0.19c-0.272-5.183-0.409-8.846-0.409-10.993V13.728h7.607V53.607z"/>
</g>
</svg>
