<?xml version="1.0" encoding="utf-8"?>
<!-- Generator: Adobe Illustrator 12.0.0, SVG Export Plug-In . SVG Version: 6.00 Build 51448)  -->
<!DOCTYPE svg PUBLIC "-//W3C//DTD SVG 1.1//EN" "http://www.w3.org/Graphics/SVG/1.1/DTD/svg11.dtd" [
	<!ENTITY ns_svg "http://www.w3.org/2000/svg">
	<!ENTITY ns_xlink "http://www.w3.org/1999/xlink">
]>
<svg  version="1.1" id="Layer_1" xmlns="&ns_svg;" xmlns:xlink="&ns_xlink;" width="185.173" height="217.04"
	 viewBox="0 0 185.173 217.04" overflow="visible" enable-background="new 0 0 185.173 217.04" xml:space="preserve">
<path fill="#22BBEE" d="M89.147,19.998c-9.355,3.283-16.2,6.096-16.2,23.993v8.585l5.603-1.123v-7.42
	c-0.133-12.13,3.018-14.668,11.208-18.208C89.709,23.538,89.511,21.59,89.147,19.998"/>
<path fill="#22BBEE" d="M105.455,16.164c0.386,1.739,0.665,3.62,0.868,5.649c14.652-2.106,14.383,3.939,14.383,16.562v4.649
	l5.548-1.138v-3.512C126.253,18.769,123.184,13.521,105.455,16.164"/>
<path fill="#22BBEE" d="M47.696,57.637V31.855c-0.184-15.981,8.067-20.876,23.287-24.431c22.941-5.377,24.399,9.399,24.399,18.807
	v21.855l5.619-1.123v-20.25c-0.053-17.8-5.608-31.125-31.123-25.347c-13.75,3.115-27.802,6.62-27.802,29.95V58.75L47.696,57.637z"/>
<polygon fill="#22BBEE" points="154.319,43.07 0,73.917 0,186.171 154.319,217.04 185.173,205.807 185.173,54.297 "/>
<polygon fill="#FFFFFF" points="67.758,162.942 33.183,158.117 33.183,129.181 67.758,129.181 "/>
<polygon fill="#FFFFFF" points="67.758,126.603 33.183,126.603 33.183,99.25 67.758,94.424 "/>
<polygon fill="#FFFFFF" points="114.874,169.532 70.316,163.204 70.316,129.181 114.874,129.181 "/>
<polygon fill="#FFFFFF" points="114.874,126.603 70.316,126.603 70.316,94.154 114.874,87.842 "/>
</svg>
